<?xml version="1.0" encoding="UTF-8" standalone="no"?>
<!-- Created with Inkscape (http://www.inkscape.org/) -->

<svg
   width="48"
   height="48"
   version="1.1"
   viewBox="0 0 12.7 12.7"
   id="svg4"
   sodipodi:docname="internet-network-icon.svg"
   inkscape:version="1.1 (c68e22c387, 2021-05-23)"
   xmlns:inkscape="http://www.inkscape.org/namespaces/inkscape"
   xmlns:sodipodi="http://sodipodi.sourceforge.net/DTD/sodipodi-0.dtd"
   xmlns="http://www.w3.org/2000/svg"
   xmlns:svg="http://www.w3.org/2000/svg">
  <defs
     id="defs8" />
  <sodipodi:namedview
     id="namedview6"
     pagecolor="#ffffff"
     bordercolor="#666666"
     borderopacity="1.0"
     inkscape:pageshadow="2"
     inkscape:pageopacity="0.0"
     inkscape:pagecheckerboard="0"
     showgrid="false"
     inkscape:zoom="15.410598"
     inkscape:cx="4.1529862"
     inkscape:cy="29.135794"
     inkscape:window-width="2092"
     inkscape:window-height="1506"
     inkscape:window-x="-204"
     inkscape:window-y="226"
     inkscape:window-maximized="0"
     inkscape:current-layer="svg4" />
  <path
     d="M 4.7996415,2.1899071 C 4.264278,2.1899732 3.8302966,2.6239546 3.8302306,3.159318 3.8300453,3.6948592 4.2641002,4.1291179 4.7996415,4.129184 5.0412893,4.1291598 5.2742182,4.0388962 5.4527823,3.8760817 L 7.3077295,5.3779488 5.1394707,6.868677 3.7037052,5.6615718 c 0.00731,-0.048625 0.010904,-0.097736 0.010761,-0.1469076 C 3.7143996,4.9793007 3.2804183,4.5453194 2.7450548,4.5452533 2.2096914,4.5453195 1.7757101,4.9793008 1.775644,5.5146642 1.7757101,6.0500277 2.2096914,6.4840089 2.7450548,6.4840751 3.1330601,6.484044 3.4836801,6.2526878 3.6363265,5.8959705 L 4.9415644,7.0890408 3.4009984,8.1814561 C 3.2262958,8.0339271 3.0050718,7.9528937 2.7764112,7.952672 2.2408699,7.9524867 1.8066112,8.3865425 1.8065452,8.9220836 1.8063601,9.4578018 2.2406924,9.8921348 2.7764112,9.8919488 3.3119523,9.8918828 3.7460071,9.4576248 3.7458221,8.9220836 3.7456398,8.7200328 3.6823372,8.5230884 3.5647603,8.358771 L 5.1474382,7.2162915 6.5483057,8.7467368 C 6.2893292,8.9279926 6.1349763,9.2241206 6.1347089,9.5402268 6.1345233,10.075946 6.5688558,10.510279 7.1045749,10.510093 7.6401164,10.510027 8.0741713,10.075768 8.0739858,9.5402268 8.0736549,9.0050506 7.6397511,8.5713612 7.1045749,8.5712951 6.9869118,8.5712788 6.8702283,8.5926801 6.7602303,8.6344541 L 5.3252038,7.0237627 7.4771018,5.5456584 9.2283611,7.0602771 C 9.0719107,7.2371753 8.9854044,7.4650934 8.9850804,7.7012492 8.984895,8.2369681 9.4192273,8.6713005 9.9549455,8.6711152 10.490487,8.6710492 10.924542,8.2367905 10.924356,7.7012492 10.92429,7.1658857 10.490309,6.7319044 9.9549455,6.7318383 9.7609457,6.7318205 9.571401,6.7900032 9.4108222,6.8988628 L 7.6731207,5.3964128 9.2191388,4.3514112 C 9.3868975,4.4777705 9.5911458,4.5462356 9.8011598,4.5465079 10.336486,4.5464413 10.770451,4.1124756 10.77057,3.577097 10.770702,3.0415405 10.336664,2.6072975 9.8011598,2.6072309 9.2654786,2.6070453 8.8311614,3.0413623 8.8312937,3.577097 8.8312453,3.7962905 8.9054593,4.0090335 9.0418314,4.1806283 L 7.4953335,5.2293668 5.6113775,3.690059 C 5.7143676,3.5322882 5.7691565,3.3479274 5.7690454,3.1595168 5.7689792,2.6241534 5.3349979,2.190172 4.7996345,2.1901059 Z m 0,0.2367366 C 5.2042453,2.4267362 5.5322183,2.7547093 5.532311,3.1593132 5.5324698,3.5640948 5.204423,3.8923452 4.7996415,3.8924378 4.3946821,3.8925967 4.0663579,3.5642725 4.0665168,3.1593132 4.0666093,2.7545316 4.3948599,2.4264849 4.7996415,2.4266437 Z M 9.8010248,2.8437448 C 10.205778,2.8438376 10.533814,3.1720764 10.533694,3.5768695 10.533562,3.9814847 10.205601,4.3094461 9.8010248,4.3095389 9.3962717,4.3096976 9.0680331,3.9816626 9.0679008,3.5768695 9.0677816,3.1718985 9.3960943,2.843586 9.8010248,2.8437448 Z M 2.7448822,4.7819061 C 3.149486,4.7819986 3.4774591,5.1099717 3.4775517,5.5145756 3.4777105,5.9193572 3.1496637,6.2476076 2.7448822,6.2477002 2.3399228,6.2478591 2.0115986,5.9195349 2.0117575,5.5145756 2.0118501,5.109794 2.3401006,4.7817473 2.7448822,4.7819061 Z m 7.2098333,2.1863526 c 0.4046035,9.28e-5 0.7325765,0.3280659 0.7326685,0.7326695 1.6e-4,0.4047815 -0.327888,0.7330319 -0.7326685,0.7331247 C 9.5497571,8.4342117 9.2214327,8.1058876 9.2215916,7.7009282 9.2216842,7.2961467 9.5499346,6.9681 9.9547155,6.9682587 Z M 2.7762624,8.1894451 C 3.1808661,8.1895375 3.5088392,8.5175104 3.508932,8.9221146 3.5090907,9.3268956 3.181044,9.6551468 2.7762624,9.6552388 2.3713031,9.6553978 2.042979,9.3270736 2.0431378,8.9221146 2.0432306,8.517333 2.371481,8.1892867 2.7762624,8.1894451 Z M 7.1043447,8.8074929 C 7.5089484,8.8075853 7.8369214,9.1355586 7.8370142,9.5401618 7.8371729,9.9449438 7.5091263,10.273195 7.1043447,10.273287 6.6993854,10.273445 6.3710613,9.9451218 6.3712201,9.5401618 6.3713129,9.1353806 6.6995633,8.8073345 7.1043447,8.8074929 Z"
     color="#000000"
     stroke-width="0.173471"
     style="-inkscape-stroke:none"
     id="path2"
     sodipodi:nodetypes="ccccccccccccccccccccccccsccccccccccccccccccccccccccccccccccccccccccccccccccc" />
</svg>
