<?xml version="1.0" encoding="UTF-8" standalone="no"?>
<svg
   version="1.1"
   x="0px"
   y="0px"
   viewBox="7.5 7.5 48 48"
   enable-background="new 7.5 7.5 50 50"
   xml:space="preserve"
   id="svg8"
   sodipodi:docname="distributed-network-icon.svg"
   inkscape:version="1.1 (c68e22c387, 2021-05-23)"
   width="48"
   height="48"
   xmlns:inkscape="http://www.inkscape.org/namespaces/inkscape"
   xmlns:sodipodi="http://sodipodi.sourceforge.net/DTD/sodipodi-0.dtd"
   xmlns="http://www.w3.org/2000/svg"
   xmlns:svg="http://www.w3.org/2000/svg"><defs
     id="defs12" /><sodipodi:namedview
     id="namedview10"
     pagecolor="#ffffff"
     bordercolor="#666666"
     borderopacity="1.0"
     inkscape:pageshadow="2"
     inkscape:pageopacity="0.0"
     inkscape:pagecheckerboard="true"
     showgrid="false"
     inkscape:zoom="15.011971"
     inkscape:cx="3.9301968"
     inkscape:cy="16.91983"
     inkscape:window-width="2092"
     inkscape:window-height="1506"
     inkscape:window-x="1315"
     inkscape:window-y="433"
     inkscape:window-maximized="0"
     inkscape:current-layer="svg8" /><path
     d="m 54.98489,21.479723 c 0,-1.86292 -1.516084,-3.379964 -3.380925,-3.379964 -1.66212,0 -3.040815,1.207678 -3.320397,2.790055 L 24.63727,15.474954 c -0.447716,-1.344108 -1.702471,-2.322164 -3.194537,-2.322164 -1.864841,0 -3.381885,1.517045 -3.381885,3.380925 0,0.792629 0.285346,1.512241 0.74363,2.089659 l -5.684835,9.648943 c -0.506321,-0.30264 -1.091426,-0.488068 -1.722647,-0.488068 -1.8648412,0 -3.3818859,1.517045 -3.3818859,3.380925 0,1.86388 1.5170447,3.381886 3.3818859,3.381886 0.380462,0 0.739787,-0.07686 1.080858,-0.193114 L 24.476822,44.53323 c -0.384305,0.548596 -0.613927,1.213443 -0.613927,1.932094 0,1.863881 1.517045,3.381886 3.381886,3.381886 1.699589,0 3.096539,-1.265325 3.331926,-2.901504 h 15.36356 c 0.235387,1.635219 1.632336,2.901504 3.332887,2.901504 1.863881,0 3.380925,-1.517045 3.380925,-3.381886 0,-1.680375 -1.235541,-3.065794 -2.844819,-3.3252 l 2.226088,-18.322711 c 1.660198,-0.213289 2.949542,-1.619846 2.949542,-3.33769 z M 47.255552,43.769423 37.16658,29.934436 c 0.703278,-0.550516 1.176935,-1.367165 1.273972,-2.302948 l 10.680801,-3.874757 c 0.50248,0.548595 1.179818,0.927136 1.946506,1.051075 l -2.226088,18.321749 c -0.588948,0.07686 -1.130817,0.298798 -1.586219,0.639868 z m -18.002776,-0.0068 5.419663,-13.142277 c 0.140271,0.01825 0.278621,0.04228 0.423697,0.04228 0.437147,0 0.853158,-0.09031 1.236501,-0.242112 l 10.235009,14.036772 c -0.327621,0.44099 -0.545714,0.959802 -0.627379,1.527613 H 30.576707 C 30.446043,45.076061 29.958936,44.288235 29.252776,43.762698 Z M 14.719314,30.582952 c -0.114331,-0.650437 -0.414089,-1.232659 -0.84355,-1.69863 l 5.6416,-9.576885 c 0.547635,0.380463 1.209601,0.608164 1.925369,0.608164 0.7811,0 1.493026,-0.277661 2.06564,-0.724415 l 8.619006,6.505326 c -0.195036,0.363167 -0.322817,0.761884 -0.373738,1.188463 z m 18.419748,-4.713503 c 0.0019,-0.0019 0.0058,-0.0029 0.0077,-0.0058 0.0019,-0.0019 0.0019,-0.0048 0.0039,-0.0068 0.44099,-0.600476 1.145229,-0.994389 1.945545,-0.994389 1.3345,0 2.420162,1.085662 2.420162,2.420162 0,1.334499 -1.085662,2.421123 -2.420162,2.421123 -0.183506,0 -0.362208,-0.02498 -0.534184,-0.06341 -0.0019,0 -0.0029,-0.0019 -0.0039,-0.0019 -0.0039,-9.6e-4 -0.0077,0 -0.01057,-0.0019 -1.07125,-0.249799 -1.872526,-1.206719 -1.872526,-2.352909 9.6e-4,-0.53034 0.174859,-1.015526 0.464048,-1.414243 z m 18.465864,-6.807967 c 1.334499,0 2.420161,1.084701 2.420161,2.419201 0,1.3345 -1.085662,2.421123 -2.420161,2.421123 -0.81761,0 -1.538181,-0.410246 -1.97725,-1.03282 -0.0019,-0.0019 -0.0029,-0.0039 -0.0048,-0.0058 -0.274777,-0.392952 -0.438107,-0.867569 -0.438107,-1.381577 0,-1.335462 1.085662,-2.420163 2.420162,-2.420163 z m -3.341534,2.810232 c 0.04419,0.377579 0.144115,0.734983 0.30264,1.063564 l -10.156224,3.684526 c -0.308406,-1.547788 -1.675572,-2.718959 -3.313672,-2.718959 -0.942509,0 -1.794705,0.39007 -2.409594,1.014566 l -8.501791,-6.417897 c 0.398717,-0.55436 0.638908,-1.228816 0.638908,-1.962838 0,-0.01057 -0.0029,-0.02017 -0.0029,-0.03074 z m -26.819698,-7.7572 c 1.3345,0 2.420162,1.085662 2.420162,2.420162 0,1.334499 -1.085662,2.421122 -2.420162,2.421122 -1.3345,0 -2.421122,-1.085662 -2.421122,-2.421122 0,-1.3345 1.086622,-2.420162 2.421122,-2.420162 z M 8.9777946,31.166135 c 0,-1.3345 1.0856624,-2.420162 2.4211224,-2.420162 1.3345,0 2.420162,1.085662 2.420162,2.420162 0,0.989586 -0.598555,1.840822 -1.451713,2.21552 -0.0019,9.6e-4 -0.0039,0.0019 -0.0058,0.0029 -0.295915,0.129703 -0.620654,0.202721 -0.962685,0.202721 -1.33546,0 -2.4211224,-1.085662 -2.4211224,-2.421122 z m 5.7607344,0.395834 17.035288,-3.697976 c 0.196957,1.125053 0.946352,2.058914 1.961878,2.50759 L 28.4025,43.303453 c -0.362208,-0.133545 -0.749395,-0.218093 -1.15868,-0.218093 -0.798394,0 -1.522809,0.290151 -2.102149,0.753239 L 13.399226,33.877408 c 0.73018,-0.54187 1.226894,-1.367165 1.339303,-2.315439 z m 12.506252,17.324478 c -1.3345,0 -2.421122,-1.085662 -2.421122,-2.421123 0,-0.652358 0.262287,-1.243227 0.684063,-1.678453 9.6e-4,-0.0019 0.0039,-0.0019 0.0048,-0.0039 0.0019,-0.0019 0.0019,-0.0048 0.0039,-0.0077 0.44003,-0.448676 1.051076,-0.729219 1.727452,-0.729219 1.3345,0 2.420162,1.084701 2.420162,2.419201 9.62e-4,1.335461 -1.0847,2.421123 -2.4192,2.421123 z m 24.448535,-2.421123 c 0,1.335461 -1.085662,2.421123 -2.420162,2.421123 -1.33546,0 -2.421122,-1.085662 -2.421122,-2.421123 0,-1.3345 1.085662,-2.4192 2.421122,-2.4192 1.3345,9.6e-4 2.420162,1.085662 2.420162,2.4192 z"
     id="path2"
     style="stroke-width:0.960763" /></svg>
